<?xml version="1.0" encoding="UTF-8"?>
<svg id="Layer_2" data-name="Layer 2" xmlns="http://www.w3.org/2000/svg" viewBox="0 0 2250.13 1512">
  <defs>
    <style>
      .cls-1 {
        fill: #fff;
        stroke-width: 0px;
      }
    </style>
  </defs>
  <g id="Defy">
    <g id="Letter_Group" data-name="Letter Group">
      <path class="cls-1" d="m1156.58,863c11.61-43.47,13.68-90.84,3.9-139.7-20.95-104.68-124.45-209.2-228.94-231.07-194.03-40.6-364.88,106.39-364.83,293.29.05,168.89,140.87,305.1,309.67,299.76,67.09-2.12,128.62-26.27,177.6-65.46l-62.7-78.48c-34.14,27.31-77.45,43.64-124.56,43.64-82.7,0-153.64-50.3-183.91-121.98h473.78Zm-489.41-78c0-110.21,89.33-199.54,199.54-199.54s199.54,89.33,199.54,199.54h-399.09Z"/>
      <path class="cls-1" d="m601.13,1092V0h-100v568.47c-59.79-53.28-141.06-83.13-229.27-75.09C127.11,506.57,0,646.36,0,791.7c0,176.5,123.42,300.3,300.86,300.3m0-100.3c-110.46,0-200-89.55-200-200s89.54-200,200-200,200,89.54,200,200-89.55,200-200,200Z"/>
      <path class="cls-1" d="m1750.13,785h-100c0-110.43-89.54-199.95-200-199.95s-200,89.52-200,199.95v114h321v100h-321v474h-100v-688c0-165.65,134.32-299.93,300-299.93s300,134.28,300,299.93Z"/>
      <path class="cls-1" d="m2250.13,785c0,6.7-.22,13.35-.66,19.94l.66-37.23v444.28c0,165.68-134.31,300-300,300s-300-134.32-300-300h100c0,110.45,89.54,200,200,200s200-89.55,200-200v-126.57c-122.78,0-56.4-.42-200-.42-165.69,0-300-138.39-300-304.08l99.95-1.35c0,111.53,91.34,207.16,203.27,205.4,108.25-1.7,196.79-93.39,196.79-201.66v-298.33s100,0,100,0v300Z"/>
    </g>
  </g>
</svg>